<svg xmlns="http://www.w3.org/2000/svg" width="76.85" height="58.25" viewBox="0 0 76.85 58.25">
  <g id="wifi" transform="translate(0 -30.813)">
    <g id="Group_871" data-name="Group 871" transform="translate(31.724 75.555)">
      <g id="Group_870" data-name="Group 870" transform="translate(0 0)">
        <path id="Path_737" data-name="Path 737" d="M218.11,391.187a6.754,6.754,0,1,0,6.754,6.754A6.762,6.762,0,0,0,218.11,391.187Z" transform="translate(-211.356 -391.187)" fill="#fff"/>
      </g>
    </g>
    <g id="Group_873" data-name="Group 873" transform="translate(0 30.813)">
      <g id="Group_872" data-name="Group 872" transform="translate(0 0)">
        <path id="Path_738" data-name="Path 738" d="M75.071,42.491c-21.389-15.571-51.864-15.571-73.253,0L0,43.817l5.388,7.41A53.4,53.4,0,0,1,39.674,39.912,54.04,54.04,0,0,1,71.5,51.224l5.345-7.407Z" transform="translate(0 -30.813)" fill="#fff"/>
      </g>
    </g>
    <g id="Group_875" data-name="Group 875" transform="translate(10.596 45.512)">
      <g id="Group_874" data-name="Group 874">
        <path id="Path_739" data-name="Path 739" d="M124.471,159.142c-15.052-10.958-37.01-10.958-52.062,0l-1.818,1.326,5.4,7.422a35.9,35.9,0,0,1,22.323-7.906h.167a35.705,35.705,0,0,1,22.423,7.895l5.389-7.411Z" transform="translate(-70.591 -150.923)" fill="#fff"/>
      </g>
    </g>
    <g id="Group_877" data-name="Group 877" transform="translate(21.191 60.634)">
      <g id="Group_876" data-name="Group 876">
        <path id="Path_740" data-name="Path 740" d="M173.871,275.792c-8.716-6.345-22.156-6.345-30.871,0l-1.818,1.326,5.387,7.408c3.417-3.321,8.829-4.7,12.939-4.425a18.011,18.011,0,0,1,10.766,4.465l5.416-7.449Z" transform="translate(-141.182 -271.033)" fill="#fff"/>
      </g>
    </g>
  </g>
</svg>
